<svg width="120" height="40" viewBox="0 0 120 40" fill="none" xmlns="http://www.w3.org/2000/svg">
  <path d="M14 10H22V30H14V10Z" fill="#333333"/>
  <path d="M26 10H34V30H26V10Z" fill="#333333"/>
  <path d="M38 10H46V30H38V10Z" fill="#333333"/>
  <path d="M50 10H58V18H66V10H74V30H66V22H58V30H50V10Z" fill="#333333"/>
  <path d="M78 10H86V22C86 24.2 87.8 26 90 26C92.2 26 94 24.2 94 22V10H102V22C102 28.6 96.6 34 90 34C83.4 34 78 28.6 78 22V10Z" fill="#333333"/>
  <path d="M106 10H114V30H106V10Z" fill="#333333"/>
  <path d="M90 10C93.3137 10 96 12.6863 96 16C96 19.3137 93.3137 22 90 22C86.6863 22 84 19.3137 84 16C84 12.6863 86.6863 10 90 10Z" fill="#00A0B0"/>
</svg>
